<?xml version="1.0" encoding="utf-8"?><svg viewBox="0 0 25 21" xmlns="http://www.w3.org/2000/svg" xmlns:xlink="http://www.w3.org/1999/xlink"><style>:root>svg{display:none}:root>svg:target{display:block}</style><svg fill="none" viewBox="0 0 22 20" id="home" xmlns="http://www.w3.org/2000/svg"><path d="M21.766 7.94L11.338.305a.572.572 0 00-.676 0L.234 7.94a.572.572 0 10.675.923L11 1.474l10.09 7.389a.569.569 0 00.8-.124.572.572 0 00-.124-.799z" fill="#524B9A"/><path d="M19.003 8.992a.572.572 0 00-.572.572v9.098h-4.573v-4.966A2.862 2.862 0 0011 10.837a2.862 2.862 0 00-2.858 2.859v4.966H3.569V9.564a.572.572 0 00-1.143 0v9.67c0 .316.256.572.571.572h5.716a.571.571 0 00.572-.572v-5.538c0-.946.77-1.715 1.715-1.715.946 0 1.715.77 1.715 1.715v5.538l.002.044a.571.571 0 00.57.528h5.716a.572.572 0 00.571-.572v-9.67a.572.572 0 00-.571-.572z" fill="#524B9A"/></svg><svg fill="none" viewBox="0 0 25 21" id="search" xmlns="http://www.w3.org/2000/svg"><path d="M24.756 19.929l-6.07-5.103c1.628-1.574 2.614-3.628 2.614-5.872C21.3 4.014 16.52 0 10.65 0 4.774 0 0 4.018 0 8.954c0 4.936 4.78 8.954 10.65 8.954 2.67 0 5.112-.829 6.984-2.198l6.07 5.104a.83.83 0 00.526.186c.188 0 .382-.06.526-.186a.56.56 0 000-.885zM1.49 8.954c0-4.246 4.11-7.697 9.155-7.697 5.05 0 9.154 3.455 9.154 7.697s-4.104 7.702-9.154 7.702c-5.046 0-9.155-3.455-9.155-7.702z" fill="#D9D9D9"/></svg></svg>